<?xml version="1.0" standalone="no"?>
<!DOCTYPE svg PUBLIC "-//W3C//DTD SVG 20010904//EN"
 "http://www.w3.org/TR/2001/REC-SVG-20010904/DTD/svg10.dtd">
<svg version="1.0" xmlns="http://www.w3.org/2000/svg"
 width="1040.000000pt" height="1040.000000pt" viewBox="0 0 1040.000000 1040.000000"
 preserveAspectRatio="xMidYMid meet">
<metadata>
Created by potrace 1.14, written by Peter Selinger 2001-2017
</metadata>
<g transform="translate(0.000000,1040.000000) scale(0.100000,-0.100000)"
fill="#000000" stroke="none">
<path d="M0 5200 l0 -4800 4799 0 c4790 0 4799 0 4804 20 3 11 1 20 -4 20 -5
0 -4 11 1 25 6 16 6 25 0 25 -6 0 -6 9 0 25 6 16 6 25 0 25 -6 0 -6 9 0 25 6
15 6 25 0 25 -5 0 -5 12 0 30 5 18 5 30 0 30 -6 0 -6 10 0 25 6 17 6 25 -1 25
-6 0 -7 5 -4 11 9 14 10 113 1 128 -4 6 -3 11 3 11 7 0 7 8 1 25 -6 15 -6 27
0 30 6 3 6 15 0 30 -6 16 -6 25 0 25 6 0 6 9 0 25 -6 15 -6 26 0 30 7 4 6 13
0 25 -6 12 -7 21 0 25 6 4 6 15 0 30 -6 16 -6 25 0 25 6 0 6 9 0 25 -5 14 -6
25 -2 25 8 0 6 74 -2 97 -3 7 -1 13 4 13 6 0 6 9 0 25 -6 16 -6 25 0 25 6 0 6
9 1 23 -5 13 -5 30 -1 37 5 8 4 22 -1 32 -7 12 -6 18 1 18 7 0 8 6 0 19 -7 13
-7 22 0 26 6 4 7 13 1 24 -6 10 -6 23 -1 31 5 8 5 19 0 25 -5 6 -5 17 0 25 4
7 4 24 0 36 -6 14 -5 26 0 29 7 4 6 13 0 25 -6 12 -7 21 0 25 6 4 6 15 0 30
-6 16 -6 25 0 25 6 0 6 9 0 25 -6 16 -6 25 0 25 6 0 6 9 0 25 -6 15 -6 25 0
25 5 0 5 12 0 30 -5 18 -5 30 0 30 6 0 6 10 0 25 -6 15 -6 25 0 25 5 0 5 12 0
30 -5 18 -5 30 0 30 6 0 6 10 0 25 -6 16 -6 25 0 25 6 0 6 9 0 25 -6 16 -6 25
0 25 6 0 6 9 0 25 -6 15 -6 27 0 30 6 3 6 15 0 30 -6 16 -6 25 0 25 6 0 6 9 0
25 -6 15 -6 26 0 30 7 4 6 13 0 25 -6 12 -7 21 0 25 6 4 6 15 0 30 -6 16 -6
25 0 25 6 0 6 9 0 25 -5 14 -6 25 -2 25 8 0 6 74 -2 97 -3 7 -1 13 4 13 6 0 6
9 0 25 -6 16 -6 25 0 25 6 0 6 9 1 23 -5 13 -5 30 -1 37 5 8 4 22 -1 32 -7 12
-6 18 1 18 7 0 8 6 0 19 -7 13 -7 22 0 26 6 4 7 13 1 24 -6 10 -6 23 -1 31 5
8 5 19 0 25 -5 6 -5 17 0 25 4 7 4 24 0 36 -6 14 -5 26 0 29 7 4 6 13 0 25 -6
12 -7 21 0 25 6 4 6 15 0 30 -6 16 -6 25 0 25 6 0 6 9 0 25 -6 16 -6 25 0 25
6 0 6 9 0 25 -6 15 -6 25 0 25 5 0 5 12 0 30 -5 18 -5 30 0 30 6 0 6 10 0 25
-6 15 -6 25 0 25 5 0 5 12 0 30 -5 18 -5 32 1 35 5 4 5 14 -1 25 -7 13 -7 21
0 25 7 4 7 13 1 24 -13 23 15 67 32 53 7 -5 23 -6 37 -2 14 4 35 3 47 -1 13
-5 25 -4 28 1 4 7 13 6 25 0 13 -7 21 -7 25 0 4 7 12 7 25 0 13 -7 21 -7 25 0
5 8 11 8 19 1 7 -6 16 -8 19 -5 8 9 85 9 93 1 4 -3 14 -2 23 3 10 5 22 5 28 2
14 -9 82 -7 90 2 4 3 12 1 19 -5 8 -7 14 -7 19 1 4 7 12 7 25 0 11 -6 21 -6
25 -1 3 6 17 6 35 1 18 -5 32 -5 35 1 4 5 14 5 25 -1 13 -7 21 -7 25 0 5 7 11
8 19 1 7 -6 17 -6 26 -1 8 5 18 6 22 4 4 -3 8 355 8 795 0 756 -1 801 -17 802
-10 1 -21 1 -24 1 -7 -1 -110 -2 -141 -1 -10 0 -67 0 -128 0 -60 0 -116 0
-122 0 -7 0 -44 0 -83 0 -38 0 -77 0 -85 0 -8 1 -51 1 -95 0 -114 -1 -115 -1
-105 19 6 11 5 21 -2 28 -9 9 -9 12 -1 12 8 0 9 9 3 30 -5 17 -5 30 0 30 5 0
5 13 0 30 -5 18 -5 30 0 30 6 0 6 10 0 25 -6 15 -6 26 0 30 7 4 6 13 0 25 -7
13 -7 21 0 25 6 4 7 13 1 24 -6 10 -6 23 -1 31 5 8 5 19 0 25 -5 6 -5 17 0 25
4 7 4 24 0 36 -6 14 -5 26 0 29 7 4 6 13 0 25 -6 12 -7 21 0 25 6 4 6 15 0 30
-6 16 -6 25 0 25 6 0 6 9 0 25 -6 16 -6 25 0 25 6 0 6 9 0 25 -6 15 -6 25 0
25 5 0 5 12 0 30 -5 18 -5 30 0 30 6 0 6 10 0 25 -6 15 -6 25 0 25 5 0 5 12 0
30 -5 18 -5 30 0 30 6 0 6 10 0 25 -6 16 -6 25 0 25 6 0 6 9 0 25 -6 16 -6 25
0 25 6 0 6 9 0 25 -6 15 -6 27 0 30 6 3 6 15 0 30 -6 16 -6 25 0 25 6 0 6 9 0
25 -6 15 -6 26 0 30 7 4 6 13 0 25 -6 12 -7 21 0 25 6 4 6 15 0 30 -6 16 -6
25 0 25 6 0 6 9 0 25 -5 14 -6 25 -2 25 8 0 6 74 -2 97 -3 7 -1 13 4 13 6 0 6
9 0 25 -6 16 -6 25 0 25 6 0 6 9 1 23 -5 13 -5 30 -1 37 5 8 4 22 -1 32 -7 12
-6 18 1 18 7 0 8 6 0 19 -7 13 -7 22 0 26 6 4 7 13 1 24 -6 10 -6 23 -1 31 5
8 5 19 0 25 -5 6 -5 17 0 25 4 7 4 24 0 36 -6 14 -5 26 0 29 7 4 6 13 0 25 -6
12 -7 21 0 25 6 4 6 15 0 30 -6 16 -6 25 0 25 6 0 6 9 0 25 -6 16 -6 25 0 25
6 0 6 9 0 25 -6 15 -6 25 0 25 5 0 5 12 0 30 -5 18 -5 30 0 30 6 0 6 10 0 25
-6 15 -6 25 0 25 5 0 5 12 0 30 -5 18 -5 30 0 30 6 0 6 10 0 25 -6 16 -6 25 0
25 6 0 6 9 0 25 -6 16 -6 25 0 25 6 0 6 9 0 25 -6 15 -6 27 0 30 6 3 6 15 0
30 -6 16 -6 25 0 25 6 0 6 9 0 25 -6 15 -6 26 0 30 7 4 6 13 0 25 -6 12 -7 21
0 25 6 4 6 15 0 30 -6 16 -6 25 0 25 6 0 6 9 0 25 -5 14 -6 25 -2 25 8 0 6 74
-2 97 -3 7 -1 13 4 13 6 0 6 9 0 25 -6 16 -6 25 0 25 6 0 6 9 1 23 -5 13 -5
30 -1 37 5 8 4 22 -1 32 -7 12 -6 18 1 18 7 0 8 6 0 19 -7 13 -7 22 0 26 6 4
7 13 1 24 -6 10 -6 23 -1 31 5 8 5 19 0 25 -5 6 -5 17 0 25 4 7 4 24 0 36 -6
14 -5 26 0 29 7 4 6 13 0 25 -6 12 -7 21 0 25 6 4 6 15 0 30 -6 16 -6 25 0 25
6 0 6 9 0 25 -6 16 -6 25 0 25 6 0 6 9 0 25 -6 15 -6 25 0 25 5 0 5 12 0 30
-5 18 -5 30 0 30 6 0 6 10 0 25 -6 15 -6 25 0 25 5 0 5 12 0 30 -5 18 -5 30 0
30 6 0 6 10 0 25 -6 16 -6 25 0 25 6 0 6 9 0 25 -6 16 -6 25 0 25 6 0 6 9 0
25 -6 15 -6 27 0 30 6 3 6 15 0 30 -6 16 -6 25 0 25 6 0 6 9 0 25 -6 15 -6 26
0 30 7 4 6 13 0 25 -6 12 -7 21 0 25 6 4 6 15 0 30 -6 16 -6 25 0 25 6 0 6 9
0 25 -5 14 -6 25 -2 25 8 0 6 74 -2 97 -3 7 -1 13 4 13 6 0 6 9 0 25 -6 16 -6
25 0 25 6 0 6 9 1 23 -5 13 -5 30 -1 37 5 8 4 22 -1 32 -7 12 -6 18 1 18 7 0
8 6 0 19 -7 13 -7 22 0 26 6 4 7 13 1 24 -6 10 -6 23 -1 31 5 8 5 19 0 25 -5
6 -5 17 0 25 4 7 4 24 0 36 -6 14 -5 26 0 29 7 4 6 13 0 25 -6 12 -7 21 0 25
5 3 6 15 1 28 -5 12 -5 32 0 45 5 13 5 22 -1 22 -6 0 -6 9 0 25 6 15 6 25 0
25 -5 0 -5 12 0 30 5 18 5 30 0 30 -6 0 -6 10 0 25 6 15 6 25 0 25 -5 0 -5 12
0 30 5 18 5 30 0 30 -6 0 -6 10 0 25 6 16 6 25 0 25 -6 0 -6 9 0 25 6 16 6 25
0 25 -5 0 -7 6 -4 13 8 23 10 97 2 97 -4 0 -3 11 2 25 5 14 6 25 1 25 -5 0 -7
9 -4 20 5 20 0 20 -4796 20 l-4801 0 0 -4800z"/>
</g>
</svg>
