<?xml version="1.0" standalone="no"?>
<!DOCTYPE svg PUBLIC "-//W3C//DTD SVG 20010904//EN"
 "http://www.w3.org/TR/2001/REC-SVG-20010904/DTD/svg10.dtd">
<svg version="1.0" xmlns="http://www.w3.org/2000/svg"
 width="700.000000pt" height="700.000000pt" viewBox="0 0 700.000000 700.000000"
 preserveAspectRatio="xMidYMid meet">
<metadata>
Created by potrace 1.14, written by Peter Selinger 2001-2017
</metadata>
<g transform="translate(0.000000,700.000000) scale(0.100000,-0.100000)"
fill="#000000" stroke="none">
<path d="M3300 6413 c-328 -23 -644 -112 -920 -261 -103 -56 -284 -179 -339
-230 -59 -56 -64 -81 -22 -123 46 -46 54 -43 185 55 47 36 105 71 128 77 64
19 334 16 433 -4 97 -21 225 -58 225 -66 0 -3 -53 -20 -118 -37 -217 -58 -427
-147 -612 -260 -61 -37 -124 -66 -175 -80 -84 -24 -105 -41 -105 -85 0 -24 -6
-29 -50 -44 -48 -16 -51 -16 -76 4 -37 29 -58 27 -149 -20 -165 -85 -288 -174
-438 -318 -197 -188 -340 -384 -457 -626 -154 -316 -223 -615 -223 -965 0
-185 11 -291 45 -455 44 -216 69 -265 132 -265 27 0 34 -5 44 -34 12 -32 11
-36 -13 -60 -14 -14 -25 -37 -25 -51 0 -57 161 -338 283 -494 69 -89 120 -101
163 -37 23 36 14 57 -66 165 -38 51 -74 110 -79 130 -31 119 -21 353 24 525
44 168 42 167 75 41 57 -220 154 -448 284 -665 31 -52 56 -104 56 -115 0 -39
89 -283 140 -386 144 -286 361 -533 654 -743 86 -61 125 -70 161 -36 20 19 21
19 127 -36 106 -54 107 -55 106 -89 -2 -57 19 -73 171 -124 234 -80 444 -113
706 -113 346 -1 636 65 942 212 129 62 148 80 140 134 -6 44 19 61 52 35 40
-31 72 -24 157 37 136 96 155 122 134 174 -13 32 -58 55 -89 45 -12 -3 -42
-23 -68 -43 -142 -111 -140 -110 -261 -123 -133 -14 -273 -2 -427 35 -177 43
-177 43 -50 76 132 34 261 79 370 128 98 45 265 135 321 173 22 15 69 35 105
44 268 67 521 196 729 371 235 197 424 438 561 718 126 257 198 528 220 829
14 201 9 242 -35 268 -31 18 -34 24 -45 102 -14 105 -14 105 8 112 38 12 44
54 22 151 -62 264 -163 496 -318 730 -83 126 -144 200 -174 209 -52 17 -114
-49 -92 -98 6 -12 40 -61 76 -109 36 -48 72 -107 78 -130 17 -56 16 -323 0
-408 -16 -86 -62 -250 -70 -250 -3 0 -20 53 -37 118 -59 220 -145 421 -267
624 -41 68 -68 128 -77 165 -39 176 -158 434 -277 601 -127 178 -349 392 -541
520 -105 71 -233 142 -255 142 -8 0 -29 -11 -45 -25 l-30 -25 -66 30 c-63 28
-66 31 -66 63 0 47 -23 64 -132 98 -225 71 -539 108 -768 92z m477 -818 c310
-41 614 -153 873 -323 145 -94 236 -170 365 -303 127 -131 216 -246 305 -396
l63 -106 -11 -121 c-31 -319 -133 -586 -316 -836 -52 -70 -56 -97 -23 -136 31
-35 77 -37 113 -3 69 64 218 325 277 484 33 87 77 241 77 266 0 40 18 17 34
-43 56 -214 76 -363 76 -575 0 -559 -204 -1068 -590 -1467 -152 -157 -316
-285 -482 -375 -76 -42 -78 -42 -150 -36 -436 37 -783 197 -1071 494 -99 102
-123 121 -152 121 -26 0 -75 -55 -75 -84 0 -55 218 -268 398 -389 166 -112
419 -221 599 -258 35 -7 60 -16 55 -20 -4 -4 -63 -21 -132 -38 -490 -121
-1010 -63 -1452 159 -384 195 -706 501 -903 863 l-38 68 11 112 c27 279 112
530 256 752 68 104 130 177 254 301 113 111 120 128 73 175 -44 43 -70 38
-149 -30 -255 -220 -460 -555 -541 -883 -14 -59 -29 -108 -32 -108 -3 0 -20
57 -37 128 -114 464 -73 939 120 1378 101 230 239 426 437 625 147 146 257
233 419 330 l104 62 96 -7 c286 -20 561 -115 797 -275 339 -228 558 -549 621
-911 12 -73 15 -134 11 -260 -5 -186 -27 -290 -92 -447 -20 -48 -42 -101 -48
-116 -23 -56 39 -113 101 -91 49 17 120 180 170 389 24 100 26 129 26 310 0
182 -2 210 -26 312 -32 135 -92 288 -155 398 -218 381 -624 685 -1063 795
-120 30 -121 31 -70 47 76 23 220 54 320 68 134 18 414 18 557 0z m-1957 -563
c27 -33 25 -68 -5 -97 -67 -68 -174 15 -119 93 32 46 90 48 124 4z m4114
-1693 c20 -16 26 -29 26 -59 0 -30 -6 -43 -26 -59 -15 -12 -37 -21 -49 -21
-12 0 -34 9 -49 21 -20 16 -26 29 -26 59 0 30 6 43 26 59 15 12 37 21 49 21
12 0 34 -9 49 -21z"/>
<path d="M2827 4210 c-166 -26 -415 -109 -452 -150 -28 -31 -23 -79 9 -107 36
-31 50 -29 153 13 153 63 258 85 435 91 174 6 272 -4 406 -43 119 -35 217 -77
312 -135 96 -58 137 -64 169 -23 39 50 27 82 -48 133 -126 86 -325 168 -501
206 -88 19 -395 29 -483 15z"/>
<path d="M3064 3870 c-40 -16 -149 -210 -202 -361 -60 -171 -77 -274 -77 -479
0 -139 4 -206 18 -270 26 -122 76 -271 100 -297 43 -48 127 -14 127 51 0 16
-13 67 -29 115 -50 149 -64 260 -58 444 4 129 10 182 30 257 36 138 80 246
144 351 64 106 69 141 28 177 -28 23 -46 26 -81 12z"/>
<path d="M3394 3826 c-198 -64 -292 -300 -194 -484 38 -71 77 -110 153 -149
46 -25 63 -28 147 -28 84 0 101 3 147 28 75 39 115 78 154 149 32 59 34 69 34
158 0 81 -4 103 -25 145 -31 64 -101 134 -165 165 -60 29 -187 37 -251 16z"/>
<path d="M4740 3194 c-41 -31 -105 -73 -141 -95 -70 -40 -79 -52 -79 -99 0
-34 40 -70 77 -70 37 0 220 112 291 178 40 38 43 82 7 117 -37 38 -70 32 -155
-31z"/>
<path d="M3162 3137 c-56 -60 -12 -116 160 -201 199 -98 371 -143 586 -153
185 -9 408 22 453 63 24 22 25 75 0 105 -22 28 -49 28 -175 5 -112 -20 -306
-21 -422 -1 -164 28 -289 73 -435 156 -97 55 -134 61 -167 26z"/>
</g>
</svg>
